STARTFONT 2.1
FONT misc.ipa.8
SIZE 15 72 72
FONTBOUNDINGBOX 14 15 0 -4
STARTPROPERTIES 4
FONT_DESCENT 4
FONT_ASCENT 11
DEFAULT_CHAR 0
COPYRIGHT "Copyright (c) 1992 AT&T - All rights reserved."
ENDPROPERTIES
CHARS 146
STARTCHAR ch-0
ENCODING 0
SWIDTH 533 0
DWIDTH 8 0
BBX 8 15 0 -4
BITMAP
0000
0000
0000
0000
0000
fc00
6600
6600
7c00
6c00
3800
0000
0000
0000
0000
ENDCHAR
STARTCHAR ch-1
ENCODING 1
SWIDTH 533 0
DWIDTH 8 0
BBX 8 15 0 -4
BITMAP
0000
0000
0000
0000
0c00
7c00
cc00
cc00
cc00
cc00
7600
0000
0000
0000
0000
ENDCHAR
STARTCHAR ch-2
ENCODING 2
SWIDTH 600 0
DWIDTH 9 0
BBX 9 15 0 -4
BITMAP
0000
0000
0000
0000
0000
dc00
6200
6300
6300
6200
7c00
6000
0000
0000
0000
ENDCHAR
STARTCHAR ch-3
ENCODING 3
SWIDTH 466 0
DWIDTH 7 0
BBX 7 15 0 -4
BITMAP
7000
4800
d800
c000
c000
f800
c400
c600
c600
c400
f800
0000
0000
0000
0000
ENDCHAR
STARTCHAR ch-4
ENCODING 4
SWIDTH 466 0
DWIDTH 7 0
BBX 7 15 0 -4
BITMAP
0000
0000
0000
0000
0000
7000
8c00
0c00
0c00
6c00
3800
0000
0000
0000
0000
ENDCHAR
STARTCHAR ch-5
ENCODING 5
SWIDTH 466 0
DWIDTH 7 0
BBX 7 15 0 -4
BITMAP
0000
0000
0000
0000
0000
3000
d800
c000
d800
e400
7800
8000
8000
0000
0000
ENDCHAR
STARTCHAR ch-6
ENCODING 6
SWIDTH 733 0
DWIDTH 11 0
BBX 11 15 0 -4
BITMAP
0000
0e00
0600
0600
0600
3e00
4600
c600
c600
4600
3e00
06c0
06c0
0640
0380
ENDCHAR
STARTCHAR ch-7
ENCODING 7
SWIDTH 666 0
DWIDTH 10 0
BBX 10 15 0 -4
BITMAP
0700
0480
0d80
0c00
0c00
7c00
cc00
cc00
cc00
cc00
7e00
0000
0000
0000
0000
ENDCHAR
STARTCHAR ch-8
ENCODING 8
SWIDTH 400 0
DWIDTH 6 0
BBX 6 15 0 -4
BITMAP
0000
0000
0000
0000
0000
7000
d800
f800
1800
1800
9800
7000
0000
0000
0000
ENDCHAR
STARTCHAR ch-9
ENCODING 9
SWIDTH 466 0
DWIDTH 7 0
BBX 7 15 0 -4
BITMAP
0000
0000
0000
0000
0000
7800
8c00
0c00
fc00
cc00
7800
0000
0000
0000
0000
ENDCHAR
STARTCHAR ch-10
ENCODING 10
SWIDTH 666 0
DWIDTH 10 0
BBX 10 15 0 -4
BITMAP
0000
0000
0000
0000
0000
7b00
8700
1700
4680
8600
7c00
0000
0000
0000
0000
ENDCHAR
STARTCHAR ch-11
ENCODING 11
SWIDTH 466 0
DWIDTH 7 0
BBX 7 15 0 -4
BITMAP
0000
0000
0000
0000
0000
7800
cc00
7000
c000
c800
7000
0000
0000
0000
0000
ENDCHAR
STARTCHAR ch-12
ENCODING 12
SWIDTH 400 0
DWIDTH 6 0
BBX 6 15 0 -4
BITMAP
0000
0000
0000
0000
0000
7000
d800
3000
1800
9800
7000
0000
0000
0000
0000
ENDCHAR
STARTCHAR ch-13
ENCODING 13
SWIDTH 600 0
DWIDTH 9 0
BBX 9 15 0 -4
BITMAP
0000
0000
0000
0000
0000
7400
dc00
3300
1800
9800
7000
0000
0000
0000
0000
ENDCHAR
STARTCHAR ch-14
ENCODING 14
SWIDTH 533 0
DWIDTH 8 0
BBX 8 15 0 -4
BITMAP
0000
0000
0000
0000
0000
3c00
4600
cc00
cc00
4600
3c00
0000
0000
0000
0000
ENDCHAR
STARTCHAR ch-15
ENCODING 15
SWIDTH 466 0
DWIDTH 7 0
BBX 7 15 0 -4
BITMAP
0000
0000
0000
0000
0000
3c00
1800
1800
1800
1800
7c00
1800
d800
f000
0000
ENDCHAR
STARTCHAR ch-16
ENCODING 16
SWIDTH 666 0
DWIDTH 10 0
BBX 10 15 0 -4
BITMAP
0000
0000
0780
0d80
0c00
3c00
cc00
cc00
cc00
cc00
7c00
6c00
6c00
4c00
3800
ENDCHAR
STARTCHAR ch-17
ENCODING 17
SWIDTH 466 0
DWIDTH 7 0
BBX 7 15 0 -4
BITMAP
0000
0000
0000
0000
0000
7c00
cc00
cc00
cc00
cc00
7c00
6c00
6c00
4c00
3800
ENDCHAR
STARTCHAR ch-18
ENCODING 18
SWIDTH 600 0
DWIDTH 9 0
BBX 9 15 0 -4
BITMAP
0000
0000
0000
0000
3e00
4200
c000
cf00
c600
4600
3e00
0000
0000
0000
0000
ENDCHAR
STARTCHAR ch-19
ENCODING 19
SWIDTH 533 0
DWIDTH 8 0
BBX 8 15 0 -4
BITMAP
0000
0000
0000
0000
0000
ee00
6800
3800
3000
1800
3800
2c00
2c00
3800
0000
ENDCHAR
STARTCHAR ch-20
ENCODING 20
SWIDTH 533 0
DWIDTH 8 0
BBX 8 15 0 -4
BITMAP
0000
0000
0000
0000
0000
ee00
3800
1800
3800
3c00
3800
0000
0000
0000
0000
ENDCHAR
STARTCHAR ch-21
ENCODING 21
SWIDTH 600 0
DWIDTH 9 0
BBX 9 15 0 -4
BITMAP
0000
0000
0000
0000
0000
ef00
6600
6600
6600
6600
3e00
0600
0600
0600
0700
ENDCHAR
STARTCHAR ch-22
ENCODING 22
SWIDTH 600 0
DWIDTH 9 0
BBX 9 15 0 -4
BITMAP
3800
2400
6c00
6000
6000
7c00
6600
6600
6600
6600
f700
0000
0000
0000
0000
ENDCHAR
STARTCHAR ch-23
ENCODING 23
SWIDTH 600 0
DWIDTH 9 0
BBX 9 15 0 -4
BITMAP
3800
2400
6c00
6000
6000
7c00
6600
6600
6600
6600
f600
0600
1e00
1c00
0000
ENDCHAR
STARTCHAR ch-24
ENCODING 24
SWIDTH 333 0
DWIDTH 5 0
BBX 5 15 0 -4
BITMAP
6000
6000
0000
0000
0000
e000
6000
f000
f000
6000
f000
0000
0000
0000
0000
ENDCHAR
STARTCHAR ch-25
ENCODING 25
SWIDTH 266 0
DWIDTH 4 0
BBX 4 15 0 -4
BITMAP
0000
0000
0000
0000
0000
c000
c000
c000
e000
e000
c000
0000
0000
0000
0000
ENDCHAR
STARTCHAR ch-26
ENCODING 26
SWIDTH 333 0
DWIDTH 5 0
BBX 5 15 0 -4
BITMAP
0000
0000
0000
0000
f000
6000
6000
6000
6000
6000
f000
0000
0000
0000
0000
ENDCHAR
STARTCHAR ch-27
ENCODING 27
SWIDTH 600 0
DWIDTH 9 0
BBX 9 15 0 -4
BITMAP
0000
3800
1800
1800
3900
7e00
9c00
1800
1800
1800
3c00
0000
0000
0000
0000
ENDCHAR
STARTCHAR ch-28
ENCODING 28
SWIDTH 400 0
DWIDTH 6 0
BBX 6 15 0 -4
BITMAP
0000
7000
3000
3000
3000
3000
f800
3000
3000
3000
7800
0000
0000
0000
0000
ENDCHAR
STARTCHAR ch-29
ENCODING 29
SWIDTH 400 0
DWIDTH 6 0
BBX 6 15 0 -4
BITMAP
0000
e000
6000
6000
6000
6000
6000
6000
6000
6000
6000
6000
7800
3800
0000
ENDCHAR
STARTCHAR ch-30
ENCODING 30
SWIDTH 466 0
DWIDTH 7 0
BBX 7 15 0 -4
BITMAP
0000
e000
6000
6000
6000
7c00
7c00
6c00
6c00
6800
fc00
0c00
3c00
3800
0000
ENDCHAR
STARTCHAR ch-31
ENCODING 31
SWIDTH 866 0
DWIDTH 13 0
BBX 13 15 0 -4
BITMAP
0000
0000
0000
0000
0000
eef0
6660
6660
6660
6660
3bf0
0000
0000
0000
0000
ENDCHAR
STARTCHAR ch-32
ENCODING 32
SWIDTH 866 0
DWIDTH 13 0
BBX 13 15 0 -4
BITMAP
0000
0000
0000
0000
0000
eef0
6660
6660
6660
6660
3be0
0060
0060
0060
0070
ENDCHAR
STARTCHAR ch-33
ENCODING 33
SWIDTH 800 0
DWIDTH 12 0
BBX 12 15 0 -4
BITMAP
0000
0000
0000
0000
0000
fdc0
6660
6660
6660
6660
f760
0060
01e0
01c0
0000
ENDCHAR
STARTCHAR ch-34
ENCODING 34
SWIDTH 666 0
DWIDTH 10 0
BBX 10 15 0 -4
BITMAP
0000
0000
0000
0000
0000
7e00
3300
3300
3300
3300
3380
3000
f000
e000
0000
ENDCHAR
STARTCHAR ch-35
ENCODING 35
SWIDTH 733 0
DWIDTH 11 0
BBX 11 15 0 -4
BITMAP
0000
0000
0000
0000
0000
fc00
6600
6600
6600
6600
f600
0600
06c0
0380
0000
ENDCHAR
STARTCHAR ch-36
ENCODING 36
SWIDTH 666 0
DWIDTH 10 0
BBX 10 15 0 -4
BITMAP
0000
0000
0000
0000
f380
7900
5900
4d00
4700
4300
e100
0000
0000
0000
0000
ENDCHAR
STARTCHAR ch-37
ENCODING 37
SWIDTH 533 0
DWIDTH 8 0
BBX 8 15 0 -4
BITMAP
0000
0000
0000
0000
0000
7c00
c600
fe00
fe00
c600
7c00
0000
0000
0000
0000
ENDCHAR
STARTCHAR ch-38
ENCODING 38
SWIDTH 666 0
DWIDTH 10 0
BBX 10 15 0 -4
BITMAP
0000
0000
0000
0000
7f00
7e00
d800
df00
d800
7e00
7f00
0000
0000
0000
0000
ENDCHAR
STARTCHAR ch-39
ENCODING 39
SWIDTH 666 0
DWIDTH 10 0
BBX 10 15 0 -4
BITMAP
0000
0000
0000
0000
3e00
4100
8080
8c80
8c80
ff80
7700
0000
0000
0000
0000
ENDCHAR
STARTCHAR ch-40
ENCODING 40
SWIDTH 666 0
DWIDTH 10 0
BBX 10 15 0 -4
BITMAP
0000
0000
3e00
0800
0800
3e00
4900
c980
c980
4900
3e00
0800
0800
3e00
0000
ENDCHAR
STARTCHAR ch-41
ENCODING 41
SWIDTH 466 0
DWIDTH 7 0
BBX 7 15 0 -4
BITMAP
0000
0000
0000
0000
0000
3c00
1800
1800
1800
d800
7c00
0000
0000
0000
0000
ENDCHAR
STARTCHAR ch-42
ENCODING 42
SWIDTH 466 0
DWIDTH 7 0
BBX 7 15 0 -4
BITMAP
0000
0000
3800
1800
1800
1800
1800
1800
1800
d800
7c00
0000
0000
0000
0000
ENDCHAR
STARTCHAR ch-43
ENCODING 43
SWIDTH 600 0
DWIDTH 9 0
BBX 9 15 0 -4
BITMAP
0000
0000
0000
0000
0000
3c00
1800
1800
1800
d800
7800
1800
1800
1b00
0e00
ENDCHAR
STARTCHAR ch-44
ENCODING 44
SWIDTH 466 0
DWIDTH 7 0
BBX 7 15 0 -4
BITMAP
0000
0000
0000
0000
0000
f800
6c00
6000
6000
6000
6000
6000
6000
f000
0000
ENDCHAR
STARTCHAR ch-45
ENCODING 45
SWIDTH 533 0
DWIDTH 8 0
BBX 8 15 0 -4
BITMAP
0000
0000
0000
0000
0000
f800
6c00
6000
6000
6000
6000
6000
6600
3c00
0000
ENDCHAR
STARTCHAR ch-46
ENCODING 46
SWIDTH 400 0
DWIDTH 6 0
BBX 6 15 0 -4
BITMAP
0000
0000
0000
0000
3000
7800
7800
6000
6000
6000
f000
0000
0000
0000
0000
ENDCHAR
STARTCHAR ch-47
ENCODING 47
SWIDTH 400 0
DWIDTH 6 0
BBX 6 15 0 -4
BITMAP
0000
0000
0000
0000
6000
f000
f000
3000
3000
3000
7800
0000
0000
0000
0000
ENDCHAR
STARTCHAR ch-48
ENCODING 48
SWIDTH 666 0
DWIDTH 10 0
BBX 10 15 0 -4
BITMAP
0000
0000
0000
0000
fc00
6600
6600
7c00
6600
6600
f780
0000
0000
0000
0000
ENDCHAR
STARTCHAR ch-49
ENCODING 49
SWIDTH 666 0
DWIDTH 10 0
BBX 10 15 0 -4
BITMAP
0000
0000
0000
0000
f780
6600
6600
7c00
6600
6600
fc00
0000
0000
0000
0000
ENDCHAR
STARTCHAR ch-50
ENCODING 50
SWIDTH 400 0
DWIDTH 6 0
BBX 6 15 0 -4
BITMAP
0000
0000
0000
0000
0000
7000
9000
f000
7800
8800
f000
b000
b000
e000
0000
ENDCHAR
STARTCHAR ch-51
ENCODING 51
SWIDTH 600 0
DWIDTH 9 0
BBX 9 15 0 -4
BITMAP
0e00
1900
1b00
1800
1800
1800
1800
1800
1800
1800
1800
1800
d800
7000
0000
ENDCHAR
STARTCHAR ch-52
ENCODING 52
SWIDTH 600 0
DWIDTH 9 0
BBX 9 15 0 -4
BITMAP
0e00
1900
1b00
1800
1800
7e00
1800
1800
1800
1800
7e00
1800
d800
7000
0000
ENDCHAR
STARTCHAR ch-53
ENCODING 53
SWIDTH 600 0
DWIDTH 9 0
BBX 9 15 0 -4
BITMAP
7000
9800
d800
1800
1800
1800
1800
1800
1800
1800
1800
1800
1b00
0e00
0000
ENDCHAR
STARTCHAR ch-54
ENCODING 54
SWIDTH 600 0
DWIDTH 9 0
BBX 9 15 0 -4
BITMAP
0e00
1900
1b00
1800
1800
1800
1800
1800
1800
1800
1800
7800
9c00
7200
0000
ENDCHAR
STARTCHAR ch-55
ENCODING 55
SWIDTH 333 0
DWIDTH 5 0
BBX 5 15 0 -4
BITMAP
0000
0000
0000
0000
0000
c000
e000
e000
6000
6000
f000
6000
4000
4000
0000
ENDCHAR
STARTCHAR ch-56
ENCODING 56
SWIDTH 400 0
DWIDTH 6 0
BBX 6 15 0 -4
BITMAP
0000
0000
2000
2000
6000
f000
6000
6000
6000
6000
6000
7000
2800
3000
0000
ENDCHAR
STARTCHAR ch-57
ENCODING 57
SWIDTH 666 0
DWIDTH 10 0
BBX 10 15 0 -4
BITMAP
0000
0000
0000
0000
f380
6100
6100
ff80
6100
6100
3e00
0000
0000
0000
0000
ENDCHAR
STARTCHAR ch-58
ENCODING 58
SWIDTH 600 0
DWIDTH 9 0
BBX 9 15 0 -4
BITMAP
0000
0000
0000
0000
e700
e700
e700
6600
6600
6600
3c00
0000
0000
0000
0000
ENDCHAR
STARTCHAR ch-59
ENCODING 59
SWIDTH 533 0
DWIDTH 8 0
BBX 8 15 0 -4
BITMAP
0000
0000
0000
0000
0000
e400
e600
6200
6200
6400
3c00
0000
0000
0000
0000
ENDCHAR
STARTCHAR ch-60
ENCODING 60
SWIDTH 533 0
DWIDTH 8 0
BBX 8 15 0 -4
BITMAP
0000
0000
0000
0000
0000
1000
3800
3800
3800
4c00
ce00
0000
0000
0000
0000
ENDCHAR
STARTCHAR ch-61
ENCODING 61
SWIDTH 733 0
DWIDTH 11 0
BBX 11 15 0 -4
BITMAP
0000
0000
0000
0000
0000
1200
3300
3f00
3f00
4d80
cdc0
0000
0000
0000
0000
ENDCHAR
STARTCHAR ch-62
ENCODING 62
SWIDTH 533 0
DWIDTH 8 0
BBX 8 15 0 -4
BITMAP
0000
0000
0e00
0e00
1000
1000
3800
3800
3800
4c00
ce00
0000
0000
0000
0000
ENDCHAR
STARTCHAR ch-63
ENCODING 63
SWIDTH 666 0
DWIDTH 10 0
BBX 10 15 0 -4
BITMAP
0000
0000
0000
0000
f380
3200
1a00
1c00
0c00
0c00
1e00
0000
0000
0000
0000
ENDCHAR
STARTCHAR ch-64
ENCODING 64
SWIDTH 666 0
DWIDTH 10 0
BBX 10 15 0 -4
BITMAP
0000
0000
0000
0000
0000
7c00
1800
3800
7000
6400
fc00
0580
0580
0700
0000
ENDCHAR
STARTCHAR ch-65
ENCODING 65
SWIDTH 600 0
DWIDTH 9 0
BBX 9 15 0 -4
BITMAP
0000
0000
0000
0000
0000
7c00
1800
3800
7000
6700
ff00
2000
4000
0000
0000
ENDCHAR
STARTCHAR ch-66
ENCODING 66
SWIDTH 466 0
DWIDTH 7 0
BBX 7 15 0 -4
BITMAP
0000
0000
0000
0000
0000
fc00
fc00
b800
f800
5c00
0c00
0c00
cc00
7800
0000
ENDCHAR
STARTCHAR ch-67
ENCODING 67
SWIDTH 466 0
DWIDTH 7 0
BBX 7 15 0 -4
BITMAP
0000
0000
0000
0000
0000
fc00
fc00
b800
7800
5c00
2c00
dc00
8c00
7c00
0000
ENDCHAR
STARTCHAR ch-68
ENCODING 68
SWIDTH 400 0
DWIDTH 6 0
BBX 6 15 0 -4
BITMAP
0000
7800
cc00
cc00
0c00
3800
3000
3000
3000
3000
7800
0000
0000
0000
0000
ENDCHAR
STARTCHAR ch-69
ENCODING 69
SWIDTH 600 0
DWIDTH 9 0
BBX 9 15 0 -4
BITMAP
0000
3e00
6300
c200
c000
7c00
1c00
0c00
0c00
0c00
1e00
0000
0000
0000
0000
ENDCHAR
STARTCHAR ch-70
ENCODING 70
SWIDTH 600 0
DWIDTH 9 0
BBX 9 15 0 -4
BITMAP
0000
0000
3000
3000
3000
3000
3e00
0700
4300
c700
7c00
0000
0000
0000
0000
ENDCHAR
STARTCHAR ch-71
ENCODING 71
SWIDTH 533 0
DWIDTH 8 0
BBX 8 15 0 -4
BITMAP
0000
3c00
6600
c200
c000
c000
c000
c000
c000
c000
c000
4200
6600
3c00
0000
ENDCHAR
STARTCHAR ch-72
ENCODING 72
SWIDTH 933 0
DWIDTH 14 0
BBX 14 15 0 -4
BITMAP
0000
0f80
3060
4010
4010
8008
8708
8708
8708
8008
4010
4010
3060
0f80
0000
ENDCHAR
STARTCHAR ch-73
ENCODING 73
SWIDTH 533 0
DWIDTH 8 0
BBX 8 15 0 -4
BITMAP
0000
0000
0000
0000
fc00
6600
6600
7c00
6600
6600
fc00
0000
0000
0000
0000
ENDCHAR
STARTCHAR ch-74
ENCODING 74
SWIDTH 533 0
DWIDTH 8 0
BBX 8 15 0 -4
BITMAP
0000
0000
0000
0000
0000
7800
c400
6600
6600
c400
7800
0000
0000
0000
0000
ENDCHAR
STARTCHAR ch-75
ENCODING 75
SWIDTH 733 0
DWIDTH 11 0
BBX 11 15 0 -4
BITMAP
0000
0380
0240
06c0
3e00
4200
c000
cf00
c600
4600
3e00
0000
0000
0000
0000
ENDCHAR
STARTCHAR ch-76
ENCODING 76
SWIDTH 600 0
DWIDTH 9 0
BBX 9 15 0 -4
BITMAP
0000
0000
0000
0000
e700
6600
6600
7e00
6600
6600
e700
0000
0000
0000
0000
ENDCHAR
STARTCHAR ch-77
ENCODING 77
SWIDTH 466 0
DWIDTH 7 0
BBX 7 15 0 -4
BITMAP
3000
3000
0000
0000
0000
7000
3000
3000
3000
3400
3800
7000
a000
a000
4000
ENDCHAR
STARTCHAR ch-78
ENCODING 78
SWIDTH 600 0
DWIDTH 9 0
BBX 9 15 0 -4
BITMAP
0000
0000
0000
0000
0000
ef00
6600
3e00
0e00
3e00
6600
e600
0600
0600
0700
ENDCHAR
STARTCHAR ch-79
ENCODING 79
SWIDTH 533 0
DWIDTH 8 0
BBX 8 15 0 -4
BITMAP
0000
0000
0000
0000
e000
6000
6000
6000
6200
7e00
fe00
0000
0000
0000
0000
ENDCHAR
STARTCHAR ch-80
ENCODING 80
SWIDTH 666 0
DWIDTH 10 0
BBX 10 15 0 -4
BITMAP
0000
0000
0780
0d80
0c00
3c00
cc00
cc00
cc00
cc00
7c00
0c00
0c00
0c00
1e00
ENDCHAR
STARTCHAR ch-81
ENCODING 81
SWIDTH 466 0
DWIDTH 7 0
BBX 7 15 0 -4
BITMAP
0000
7800
cc00
cc00
0c00
3800
3000
fc00
3000
3000
7800
0000
0000
0000
0000
ENDCHAR
STARTCHAR ch-82
ENCODING 82
SWIDTH 600 0
DWIDTH 9 0
BBX 9 15 0 -4
BITMAP
0000
3e00
6300
c200
c000
7c00
1c00
0c00
3f00
0c00
1e00
0000
0000
0000
0000
ENDCHAR
STARTCHAR ch-83
ENCODING 83
SWIDTH 866 0
DWIDTH 13 0
BBX 13 15 0 -4
BITMAP
0000
0e00
0600
0600
0600
3ff0
4660
c660
c6c0
4780
3ff0
0000
0000
0000
0000
ENDCHAR
STARTCHAR ch-84
ENCODING 84
SWIDTH 866 0
DWIDTH 13 0
BBX 13 15 0 -4
BITMAP
0000
0e00
0600
0600
0600
3ff0
47f0
c660
c640
46e0
3f30
0030
0230
03e0
0000
ENDCHAR
STARTCHAR ch-85
ENCODING 85
SWIDTH 933 0
DWIDTH 14 0
BBX 17 15 0 -4
BITMAP
0000
0e00
0600
0600
0600
3ff0
4660
c6e0
c680
47b8
3ff8
0100
0200
0000
0000
ENDCHAR
STARTCHAR ch-86
ENCODING 86
SWIDTH 733 0
DWIDTH 11 0
BBX 11 15 0 -4
BITMAP
0000
0000
2000
2000
6780
fc80
6400
6700
6380
60c0
3f80
0000
0000
0000
0000
ENDCHAR
STARTCHAR ch-87
ENCODING 87
SWIDTH 733 0
DWIDTH 11 0
BBX 11 15 0 -4
BITMAP
0000
0380
2640
26c0
6600
fe00
6600
6600
6e00
6e00
3600
0600
3600
3c00
0000
ENDCHAR
STARTCHAR ch-88
ENCODING 88
SWIDTH 800 0
DWIDTH 12 0
BBX 12 15 0 -4
BITMAP
0000
0000
2000
2000
6000
fd80
66c0
6600
66c0
6320
3fc0
0400
0400
0000
0000
ENDCHAR
STARTCHAR ch-96
ENCODING 96
SWIDTH 266 0
DWIDTH 4 0
BBX 4 15 0 -4
BITMAP
0000
8000
8000
e000
a000
a000
a000
0000
0000
0000
0000
0000
0000
0000
0000
ENDCHAR
STARTCHAR ch-97
ENCODING 97
SWIDTH 266 0
DWIDTH 4 0
BBX 4 15 0 -4
BITMAP
0000
e000
8000
e000
a000
a000
a000
0000
0000
0000
0000
0000
0000
0000
0000
ENDCHAR
STARTCHAR ch-98
ENCODING 98
SWIDTH 266 0
DWIDTH 4 0
BBX 4 15 0 -4
BITMAP
0000
2000
0000
2000
2000
2000
2000
a000
4000
0000
0000
0000
0000
0000
0000
ENDCHAR
STARTCHAR ch-99
ENCODING 99
SWIDTH 266 0
DWIDTH 4 0
BBX 4 15 0 -4
BITMAP
0000
0000
0000
a000
c000
8000
8000
0000
0000
0000
0000
0000
0000
0000
0000
ENDCHAR
STARTCHAR ch-100
ENCODING 100
SWIDTH 266 0
DWIDTH 4 0
BBX 4 15 0 -4
BITMAP
0000
0000
0000
2000
2000
6000
a000
0000
0000
0000
0000
0000
0000
0000
0000
ENDCHAR
STARTCHAR ch-101
ENCODING 101
SWIDTH 400 0
DWIDTH 6 0
BBX 6 15 0 -4
BITMAP
0000
0000
0000
2000
2000
6000
a800
1000
0000
0000
0000
0000
0000
0000
0000
ENDCHAR
STARTCHAR ch-102
ENCODING 102
SWIDTH 400 0
DWIDTH 6 0
BBX 6 15 0 -4
BITMAP
0000
9800
9000
e000
9000
9000
e000
0000
0000
0000
0000
0000
0000
0000
0000
ENDCHAR
STARTCHAR ch-103
ENCODING 103
SWIDTH 400 0
DWIDTH 6 0
BBX 6 15 0 -4
BITMAP
0000
0000
0000
8800
a800
a800
5000
0000
0000
0000
0000
0000
0000
0000
0000
ENDCHAR
STARTCHAR ch-104
ENCODING 104
SWIDTH 266 0
DWIDTH 4 0
BBX 4 15 0 -4
BITMAP
0000
0000
0000
a000
a000
4000
4000
8000
0000
0000
0000
0000
0000
0000
0000
ENDCHAR
STARTCHAR ch-105
ENCODING 105
SWIDTH 266 0
DWIDTH 4 0
BBX 4 15 0 -4
BITMAP
0000
2000
6000
c000
8000
0000
0000
0000
0000
0000
0000
0000
0000
0000
0000
ENDCHAR
STARTCHAR ch-106
ENCODING 106
SWIDTH 466 0
DWIDTH 7 0
BBX 7 15 0 -4
BITMAP
0000
2400
6c00
d800
9000
0000
0000
0000
0000
0000
0000
0000
0000
0000
0000
ENDCHAR
STARTCHAR ch-107
ENCODING 107
SWIDTH 266 0
DWIDTH 4 0
BBX 4 15 0 -4
BITMAP
0000
6000
4000
8000
e000
6000
0000
0000
0000
0000
0000
0000
0000
0000
0000
ENDCHAR
STARTCHAR ch-108
ENCODING 108
SWIDTH 266 0
DWIDTH 4 0
BBX 4 15 0 -4
BITMAP
0000
c000
e000
2000
4000
c000
0000
0000
0000
0000
0000
0000
0000
0000
0000
ENDCHAR
STARTCHAR ch-109
ENCODING 109
SWIDTH 266 0
DWIDTH 4 0
BBX 4 15 0 -4
BITMAP
0000
6000
e000
8000
4000
6000
0000
0000
0000
0000
0000
0000
0000
0000
0000
ENDCHAR
STARTCHAR ch-110
ENCODING 110
SWIDTH 266 0
DWIDTH 4 0
BBX 4 15 0 -4
BITMAP
0000
c000
2000
2000
2000
c000
0000
0000
0000
0000
0000
0000
0000
0000
0000
ENDCHAR
STARTCHAR ch-111
ENCODING 111
SWIDTH 266 0
DWIDTH 4 0
BBX 4 15 0 -4
BITMAP
0000
6000
8000
8000
8000
6000
0000
0000
0000
0000
0000
0000
0000
0000
0000
ENDCHAR
STARTCHAR ch-112
ENCODING 112
SWIDTH 333 0
DWIDTH 5 0
BBX 5 15 0 -4
BITMAP
0000
6000
9000
2000
4000
4000
0000
0000
0000
0000
0000
0000
0000
0000
0000
ENDCHAR
STARTCHAR ch-113
ENCODING 113
SWIDTH 333 0
DWIDTH 5 0
BBX 5 15 0 -4
BITMAP
0000
6000
9000
4000
2000
2000
0000
0000
0000
0000
0000
0000
0000
0000
0000
ENDCHAR
STARTCHAR ch-114
ENCODING 114
SWIDTH 266 0
DWIDTH 4 0
BBX 4 15 0 -4
BITMAP
0000
2000
4000
8000
4000
2000
0000
0000
0000
0000
0000
0000
0000
0000
0000
ENDCHAR
STARTCHAR ch-115
ENCODING 115
SWIDTH 266 0
DWIDTH 4 0
BBX 4 15 0 -4
BITMAP
0000
8000
4000
2000
4000
8000
0000
0000
0000
0000
0000
0000
0000
0000
0000
ENDCHAR
STARTCHAR ch-116
ENCODING 116
SWIDTH 400 0
DWIDTH 6 0
BBX 6 15 0 -4
BITMAP
0000
0000
2000
5000
8800
0000
0000
0000
0000
0000
0000
0000
0000
0000
0000
ENDCHAR
STARTCHAR ch-117
ENCODING 117
SWIDTH 400 0
DWIDTH 6 0
BBX 6 15 0 -4
BITMAP
0000
0000
8800
5000
2000
0000
0000
0000
0000
0000
0000
0000
0000
0000
0000
ENDCHAR
STARTCHAR ch-118
ENCODING 118
SWIDTH 266 0
DWIDTH 4 0
BBX 4 15 0 -4
BITMAP
0000
0000
4000
a000
0000
0000
0000
0000
0000
0000
0000
0000
0000
0000
0000
ENDCHAR
STARTCHAR ch-119
ENCODING 119
SWIDTH 266 0
DWIDTH 4 0
BBX 4 15 0 -4
BITMAP
0000
0000
a000
4000
0000
0000
0000
0000
0000
0000
0000
0000
0000
0000
0000
ENDCHAR
STARTCHAR ch-120
ENCODING 120
SWIDTH 133 0
DWIDTH 2 0
BBX 2 15 0 -4
BITMAP
0000
8000
8000
8000
8000
0000
0000
0000
0000
0000
0000
0000
0000
0000
0000
ENDCHAR
STARTCHAR ch-121
ENCODING 121
SWIDTH 400 0
DWIDTH 6 0
BBX 6 15 0 -4
BITMAP
0000
0000
0000
f800
0000
0000
0000
0000
0000
0000
0000
0000
0000
0000
0000
ENDCHAR
STARTCHAR ch-122
ENCODING 122
SWIDTH 200 0
DWIDTH 3 0
BBX 3 15 0 -4
BITMAP
0000
4000
8000
0000
0000
0000
0000
0000
0000
0000
0000
0000
0000
0000
0000
ENDCHAR
STARTCHAR ch-123
ENCODING 123
SWIDTH 200 0
DWIDTH 3 0
BBX 3 15 0 -4
BITMAP
0000
8000
4000
0000
0000
0000
0000
0000
0000
0000
0000
0000
0000
0000
0000
ENDCHAR
STARTCHAR ch-124
ENCODING 124
SWIDTH 133 0
DWIDTH 2 0
BBX 2 15 0 -4
BITMAP
0000
0000
0000
0000
0000
0000
0000
0000
0000
8000
8000
8000
8000
8000
0000
ENDCHAR
STARTCHAR ch-125
ENCODING 125
SWIDTH 400 0
DWIDTH 6 0
BBX 6 15 0 -4
BITMAP
0000
0000
0000
0000
0000
0000
0000
0000
0000
0000
0000
0000
f800
0000
0000
ENDCHAR
STARTCHAR ch-126
ENCODING 126
SWIDTH 200 0
DWIDTH 3 0
BBX 3 15 0 -4
BITMAP
0000
0000
0000
0000
0000
0000
0000
0000
0000
0000
0000
8000
4000
0000
0000
ENDCHAR
STARTCHAR ch-127
ENCODING 127
SWIDTH 200 0
DWIDTH 3 0
BBX 3 15 0 -4
BITMAP
0000
0000
0000
0000
0000
0000
0000
0000
0000
0000
0000
4000
8000
0000
0000
ENDCHAR
STARTCHAR ch-128
ENCODING 128
SWIDTH 333 0
DWIDTH 5 0
BBX 5 15 0 -4
BITMAP
0000
0000
2000
6000
6000
2000
0000
2000
6000
6000
2000
0000
0000
0000
0000
ENDCHAR
STARTCHAR ch-129
ENCODING 129
SWIDTH 333 0
DWIDTH 5 0
BBX 5 15 0 -4
BITMAP
0000
0000
0000
0000
6000
6000
6000
0000
0000
0000
0000
0000
0000
0000
0000
ENDCHAR
STARTCHAR ch-130
ENCODING 130
SWIDTH 266 0
DWIDTH 4 0
BBX 4 15 0 -4
BITMAP
0000
0000
0000
0000
c000
2000
2000
2000
c000
0000
0000
0000
0000
0000
0000
ENDCHAR
STARTCHAR ch-131
ENCODING 131
SWIDTH 266 0
DWIDTH 4 0
BBX 4 15 0 -4
BITMAP
0000
0000
0000
0000
6000
8000
8000
8000
6000
0000
0000
0000
0000
0000
0000
ENDCHAR
STARTCHAR ch-132
ENCODING 132
SWIDTH 600 0
DWIDTH 9 0
BBX 9 15 0 -4
BITMAP
0000
0000
0000
0000
0000
1000
1000
1000
1000
fe00
0000
0000
0000
0000
0000
ENDCHAR
STARTCHAR ch-133
ENCODING 133
SWIDTH 533 0
DWIDTH 8 0
BBX 8 15 0 -4
BITMAP
0000
0000
0000
0000
0000
fe00
1000
1000
1000
1000
0000
0000
0000
0000
0000
ENDCHAR
STARTCHAR ch-134
ENCODING 134
SWIDTH 400 0
DWIDTH 6 0
BBX 6 15 0 -4
BITMAP
0000
0000
0000
0000
0000
2000
2000
f800
2000
2000
0000
0000
0000
0000
0000
ENDCHAR
STARTCHAR ch-135
ENCODING 135
SWIDTH 400 0
DWIDTH 6 0
BBX 6 15 0 -4
BITMAP
0000
0000
0000
0000
0000
0000
8800
f800
8800
0000
0000
0000
0000
0000
0000
ENDCHAR
STARTCHAR ch-136
ENCODING 136
SWIDTH 333 0
DWIDTH 5 0
BBX 5 15 0 -4
BITMAP
0000
9000
f000
0000
0000
0000
0000
0000
0000
0000
0000
0000
0000
0000
0000
ENDCHAR
STARTCHAR ch-137
ENCODING 137
SWIDTH 200 0
DWIDTH 3 0
BBX 3 15 0 -4
BITMAP
0000
c000
c000
0000
0000
0000
0000
0000
0000
0000
0000
0000
0000
0000
0000
ENDCHAR
STARTCHAR ch-138
ENCODING 138
SWIDTH 266 0
DWIDTH 4 0
BBX 4 15 0 -4
BITMAP
0000
e000
a000
e000
0000
0000
0000
0000
0000
0000
0000
0000
0000
0000
0000
ENDCHAR
STARTCHAR ch-139
ENCODING 139
SWIDTH 200 0
DWIDTH 3 0
BBX 3 15 0 -4
BITMAP
0000
0000
0000
0000
0000
0000
0000
0000
0000
0000
4000
8000
8000
c000
0000
ENDCHAR
STARTCHAR ch-140
ENCODING 140
SWIDTH 600 0
DWIDTH 9 0
BBX 9 15 0 -4
BITMAP
0000
3100
7e00
8c00
0000
0000
0000
0000
0000
0000
0000
0000
0000
0000
0000
ENDCHAR
STARTCHAR ch-141
ENCODING 141
SWIDTH 400 0
DWIDTH 6 0
BBX 6 15 0 -4
BITMAP
0000
2800
5000
a000
0000
0000
0000
0000
0000
0000
0000
0000
0000
0000
0000
ENDCHAR
STARTCHAR ch-142
ENCODING 142
SWIDTH 600 0
DWIDTH 9 0
BBX 9 15 0 -4
BITMAP
0000
0000
0000
0000
3100
7e00
8c00
0000
0000
0000
0000
0000
0000
0000
0000
ENDCHAR
STARTCHAR ch-144
ENCODING 144
SWIDTH 333 0
DWIDTH 5 0
BBX 5 15 0 -4
BITMAP
0000
9000
6000
6000
6000
0000
0000
0000
0000
0000
0000
0000
0000
0000
0000
ENDCHAR
STARTCHAR ch-145
ENCODING 145
SWIDTH 266 0
DWIDTH 4 0
BBX 4 15 0 -4
BITMAP
0000
c000
4000
4000
4000
4000
e000
0000
0000
0000
0000
0000
0000
0000
0000
ENDCHAR
STARTCHAR ch-146
ENCODING 146
SWIDTH 266 0
DWIDTH 4 0
BBX 4 15 0 -4
BITMAP
0000
0000
6000
8000
4000
2000
c000
0000
0000
0000
0000
0000
0000
0000
0000
ENDCHAR
STARTCHAR ch-147
ENCODING 147
SWIDTH 333 0
DWIDTH 5 0
BBX 5 15 0 -4
BITMAP
0000
0000
0000
9000
6000
6000
9000
0000
0000
0000
0000
0000
0000
0000
0000
ENDCHAR
STARTCHAR ch-148
ENCODING 148
SWIDTH 266 0
DWIDTH 4 0
BBX 4 15 0 -4
BITMAP
0000
4000
a000
8000
4000
4000
e000
0000
0000
0000
0000
0000
0000
0000
0000
ENDCHAR
STARTCHAR ch-149
ENCODING 149
SWIDTH 333 0
DWIDTH 5 0
BBX 5 15 0 -4
BITMAP
0000
f000
1000
1000
1000
1000
1000
1000
0000
0000
0000
0000
0000
0000
0000
ENDCHAR
STARTCHAR ch-150
ENCODING 150
SWIDTH 333 0
DWIDTH 5 0
BBX 5 15 0 -4
BITMAP
0000
1000
1000
f000
1000
1000
1000
1000
0000
0000
0000
0000
0000
0000
0000
ENDCHAR
STARTCHAR ch-151
ENCODING 151
SWIDTH 333 0
DWIDTH 5 0
BBX 5 15 0 -4
BITMAP
0000
1000
1000
1000
f000
1000
1000
1000
0000
0000
0000
0000
0000
0000
0000
ENDCHAR
STARTCHAR ch-152
ENCODING 152
SWIDTH 333 0
DWIDTH 5 0
BBX 5 15 0 -4
BITMAP
0000
1000
1000
1000
1000
f000
1000
1000
0000
0000
0000
0000
0000
0000
0000
ENDCHAR
STARTCHAR ch-153
ENCODING 153
SWIDTH 333 0
DWIDTH 5 0
BBX 5 15 0 -4
BITMAP
0000
1000
1000
1000
1000
1000
1000
f000
0000
0000
0000
0000
0000
0000
0000
ENDCHAR
ENDFONT
